<svg width="52" height="52" viewBox="0 0 52 52" fill="none" xmlns="http://www.w3.org/2000/svg">
<g clip-path="url(#clip0_1_5)">
<circle cx="26" cy="26" r="26" fill="white"/>
<g clip-path="url(#clip1_1_5)">
<rect x="13" y="18" width="23" height="22" fill="#D29FD3" fill-opacity="0.5"/>
<path d="M36.317 23.8574C36.2809 24.5899 35.7252 25.4942 34.8297 26.3633V37.8164C34.8287 38.1114 34.7125 38.3614 34.5162 38.5567C34.319 38.7481 34.0631 38.8614 33.7623 38.8633H15.0974C14.7985 38.8614 14.5417 38.748 14.3444 38.5567C14.1481 38.3614 14.0329 38.1114 14.0319 37.8164V19.5137C14.0329 19.2197 14.1481 18.9687 14.3444 18.7734C14.5417 18.582 14.7985 18.4687 15.0974 18.4668H25.0104C25.8122 17.414 26.7467 16.3359 27.8054 15.3477C27.8102 15.3418 27.8142 15.3359 27.819 15.3301H15.0974C13.9255 15.3291 12.8484 15.8008 12.0817 16.5547C11.3112 17.3087 10.8307 18.3634 10.8317 19.5137V37.8165C10.8307 38.9669 11.3112 40.0235 12.0817 40.7755C12.8483 41.5293 13.9255 42 15.0974 42H33.7624C34.9362 42 36.0134 41.5293 36.78 40.7754C37.5485 40.0234 38.03 38.9667 38.029 37.8164V22.7168C38.029 22.7168 38.0212 22.707 38.0085 22.6972C37.5231 23.1133 36.9577 23.5097 36.317 23.8574Z" fill="#5D005F"/>
<path d="M41.1286 10C41.1286 10 40.1481 11.4649 33.7438 13.6318C27.2135 15.8418 23.194 24.8321 23.194 24.8321C22.2262 26.6739 18.401 34.3262 18.401 34.3262C17.3473 36.3028 19.2779 37.4708 20.4107 35.4297C22.5816 31.5117 23.983 27.9316 27.2838 27.8301C32.0992 27.6816 35.3921 23.4766 34.356 23.6719C32.9927 24.2656 29.9869 23.7168 31.7574 23.4434C36.0074 23.1026 38.6265 19.9082 37.773 19.6914C36.2662 20.2715 34.8609 19.7208 34.5855 19.5547C42.0866 18.6426 41.1286 10 41.1286 10Z" fill="#5D005F"/>
</g>
</g>
<defs>
<clipPath id="clip0_1_5">
<rect width="52" height="52" fill="white"/>
</clipPath>
<clipPath id="clip1_1_5">
<rect width="32" height="32" fill="white" transform="translate(10 10)"/>
</clipPath>
</defs>
</svg>
