<svg width="42" height="42" viewBox="0 0 42 42" fill="none" xmlns="http://www.w3.org/2000/svg">
<rect x="7.875" y="5.25" width="26.25" height="31.5" fill="white"/>
<path d="M21 0.000701904C9.40323 0.000701904 0 9.40209 0 20.9998C0 32.5975 9.40231 41.9989 21 41.9989C32.5986 41.9989 42 32.5975 42 20.9998C42 9.40209 32.5986 0.000701904 21 0.000701904ZM21 6.27967C24.8373 6.27967 27.9468 9.3901 27.9468 13.2256C27.9468 17.0619 24.8373 20.1714 21 20.1714C17.1645 20.1714 14.055 17.0619 14.055 13.2256C14.055 9.3901 17.1645 6.27967 21 6.27967ZM20.9954 36.5086C17.1682 36.5086 13.663 35.1148 10.9594 32.8078C10.3008 32.246 9.92071 31.4223 9.92071 30.558C9.92071 26.6681 13.069 23.5549 16.9598 23.5549H25.0421C28.9338 23.5549 32.0701 26.6681 32.0701 30.558C32.0701 31.4232 31.6919 32.2451 31.0323 32.8069C28.3296 35.1148 24.8235 36.5086 20.9954 36.5086Z" fill="#39003A"/>
</svg>
