<svg width="16" height="16" viewBox="0 0 16 16" fill="none" xmlns="http://www.w3.org/2000/svg">
<g clip-path="url(#clip0_2_111)">
<path fill-rule="evenodd" clip-rule="evenodd" d="M6.49077 12.9816C7.97067 12.9816 9.33548 12.4857 10.4285 11.6514L14.5333 15.7571C14.6965 15.9147 14.9152 16.0019 15.1421 16C15.369 15.998 15.5861 15.907 15.7465 15.7465C15.907 15.5861 15.998 15.369 16 15.1421C16.0019 14.9152 15.9147 14.6966 15.7571 14.5333L11.6514 10.4277C12.5396 9.26336 13.008 7.83287 12.9805 6.36868C12.9529 4.90448 12.431 3.49263 11.4996 2.36255C10.5682 1.23246 9.282 0.450566 7.85 0.143909C6.41801 -0.162749 4.9244 0.0238577 3.61187 0.673406C2.29934 1.32295 1.24504 2.39727 0.620292 3.72177C-0.0044589 5.04628 -0.162944 6.54313 0.170591 7.9691C0.504126 9.39507 1.31008 10.6663 2.45748 11.5763C3.60489 12.4863 5.02631 12.9816 6.49077 12.9816ZM11.2507 6.4908C11.2507 7.75321 10.7492 8.96391 9.85655 9.85657C8.96389 10.7492 7.75318 11.2507 6.49077 11.2507C5.22835 11.2507 4.01765 10.7492 3.12499 9.85657C2.23233 8.96391 1.73083 7.75321 1.73083 6.4908C1.73083 5.22839 2.23233 4.01769 3.12499 3.12503C4.01765 2.23238 5.22835 1.73089 6.49077 1.73089C7.75318 1.73089 8.96389 2.23238 9.85655 3.12503C10.7492 4.01769 11.2507 5.22839 11.2507 6.4908Z" fill="#39003A" fill-opacity="0.25"/>
</g>
<defs>
<clipPath id="clip0_2_111">
<rect width="16" height="16" fill="white"/>
</clipPath>
</defs>
</svg>
